<svg id="logo-leme-light" xmlns="http://www.w3.org/2000/svg" width="200.213" height="200.213" viewBox="0 0 200.213 200.213">
  <rect id="Retângulo_4282" data-name="Retângulo 4282" width="200.213" height="200.213" fill="#f5f6f7"/>
  <g id="LOGOS" transform="translate(50 50)">
    <g id="Grupo_2506" data-name="Grupo 2506" transform="translate(0 0)">
      <path id="Caminho_22641" data-name="Caminho 22641" d="M0,0H4V38.667H0Z" transform="translate(48)" fill="#22425c"/>
      <path id="Caminho_22584" data-name="Caminho 22584" d="M0,0H38.667V4H0Z" transform="translate(61.333 48)" fill="#22425c"/>
      <path id="Caminho_22587" data-name="Caminho 22587" d="M0,0H38.667V4H0Z" transform="translate(0 48)" fill="#22425c"/>
      <path id="Caminho_22640" data-name="Caminho 22640" d="M0,0H4V38.667H0Z" transform="translate(48 61.333)" fill="#22425c"/>
      <path id="Caminho_22590" data-name="Caminho 22590" d="M417.935,19811.174l-25.437-25.436,2.829-2.828,25.436,25.436h-2.828v2.828Z" transform="translate(-379.268 -19769.678)" fill="#22425c"/>
      <path id="Caminho_22589" data-name="Caminho 22589" d="M0,4H100V0H0Z" transform="translate(86.77 16.059) rotate(135)" fill="#e5695b"/>
      <path id="Caminho_22591" data-name="Caminho 22591" d="M757.5,20150.732l-25.436-25.437h2.829v-2.828l25.436,25.439-2.828,2.826Z" transform="translate(-673.555 -20063.961)" fill="#22425c"/>
    </g>
  </g>
</svg>
